<svg width="31" height="24" viewBox="0 0 31 24" fill="none" xmlns="http://www.w3.org/2000/svg">
<path d="M9.20839 13.4866H17.1449V21.1815H13.8737L13.4833 17.8917C13.1116 19.0689 12.4487 19.9424 11.4946 20.5124C10.5404 21.0824 9.37567 21.3674 8.00026 21.3674C6.74875 21.3674 5.63354 21.0886 4.65464 20.531C3.68813 19.9734 2.92608 19.1742 2.36848 18.1333C1.82326 17.0925 1.55066 15.8781 1.55066 14.4903C1.55066 12.2723 2.21359 10.519 3.53944 9.23028C4.86529 7.9416 6.92842 7.29726 9.72882 7.29726C11.3273 7.29726 12.7337 7.55748 13.948 8.07791C15.1747 8.59833 16.2156 9.40376 17.0706 10.4942C16.513 10.7792 15.4226 11.3492 13.7993 12.2042L13.3346 12.4644C12.8514 11.9811 12.2876 11.6218 11.6433 11.3863C10.9989 11.1385 10.3174 11.0146 9.59871 11.0146C8.40916 11.0146 7.5232 11.3306 6.94081 11.9625C6.35843 12.5821 6.06724 13.3503 6.06724 14.2673C6.06724 15.2586 6.37701 16.0578 6.99657 16.665C7.62852 17.2721 8.58884 17.5757 9.87752 17.5757C10.4351 17.5757 10.9741 17.4952 11.4946 17.3341C12.0274 17.173 12.4735 16.8942 12.8328 16.4977H9.20839V13.4866Z" fill="#BABABA"/>
<path d="M29.4493 6.53615C27.5039 6.47419 25.6143 6.43702 23.7804 6.42463V16.1269H19.1337V6.42463C17.2874 6.43702 15.404 6.47419 13.4833 6.53615V2.63294H29.4493V6.53615Z" fill="#BABABA"/>
</svg>
