<svg width="24" height="30" viewBox="0 0 24 30" fill="none" xmlns="http://www.w3.org/2000/svg">
<path d="M23.7874 0.267668C23.7517 0.187868 23.6936 0.120167 23.6201 0.072816C23.5466 0.0254646 23.4609 0.000506711 23.3735 0.000983262H10.5635C10.4865 0.00111143 10.4109 0.0205416 10.3434 0.0574939C10.2759 0.0944463 10.2188 0.147739 10.1772 0.212492L0.328293 15.8457C0.280877 15.9138 0.253174 15.9936 0.248236 16.0765C0.243298 16.1593 0.261316 16.2418 0.300306 16.3151C0.339296 16.3883 0.397744 16.4493 0.469209 16.4915C0.540674 16.5336 0.622382 16.5552 0.70533 16.5538H7.75868L1.53297 28.7386C1.49723 28.811 1.48043 28.8914 1.48414 28.9721C1.48785 29.0528 1.51195 29.1312 1.5542 29.2001C1.59644 29.269 1.65545 29.326 1.72571 29.3659C1.79597 29.4058 1.8752 29.4273 1.95599 29.4283H4.7148C4.77862 29.4287 4.84183 29.4158 4.90041 29.3905C4.95899 29.3652 5.01165 29.3279 5.05505 29.2811L21.2125 11.8179C21.2766 11.7525 21.3198 11.6694 21.3364 11.5794C21.353 11.4893 21.3424 11.3963 21.3058 11.3123C21.2693 11.2284 21.2085 11.1572 21.1312 11.108C21.054 11.0588 20.9638 11.0338 20.8722 11.0362H14.6741L23.7138 0.755057C23.7721 0.689742 23.8101 0.608868 23.8231 0.522314C23.8362 0.43576 23.8238 0.347274 23.7874 0.267668Z" fill="#2B788B"/>
</svg>
