<svg width="31" height="24" viewBox="0 0 31 24" fill="none" xmlns="http://www.w3.org/2000/svg">
<path fill-rule="evenodd" clip-rule="evenodd" d="M25.2273 3.68466C26.3255 3.99844 27.1099 4.7829 27.4237 5.88113C28.0513 7.9207 28.0513 11.9999 28.0513 11.9999C28.0513 11.9999 28.0513 16.079 27.5806 18.1186C27.2668 19.2168 26.4823 20.0013 25.3841 20.315C23.3445 20.7857 15.5 20.7857 15.5 20.7857C15.5 20.7857 7.49861 20.7857 5.61592 20.315C4.51769 20.0013 3.73325 19.2168 3.41947 18.1186C2.9488 16.079 2.94879 11.9999 2.94879 11.9999C2.94879 11.9999 2.94879 7.9207 3.26257 5.88113C3.57635 4.7829 4.36082 3.99844 5.45905 3.68466C7.49862 3.21399 15.3431 3.21399 15.3431 3.21399C15.3431 3.21399 23.3446 3.21399 25.2273 3.68466ZM12.9898 8.92376C12.9898 8.61663 13.3216 8.42408 13.5882 8.57646L18.9714 11.6526C19.2401 11.8061 19.2401 12.1936 18.9714 12.3472L13.5882 15.4233C13.3216 15.5756 12.9898 15.3831 12.9898 15.076V8.92376Z" fill="#BABABA"/>
</svg>
